<svg xmlns="http://www.w3.org/2000/svg" viewBox="0 0 505 505"><circle cx="252.5" cy="252.5" r="252.5" fill="#324a5e"/><path fill="#84dbff" d="M120.2 243.6l49.7-73.7 5.7-10.3 3.9 11.2 64.2 152.1 114.7-92.6 29.2 18.7v12.9l-28.5-18.1-119.8 96.7-66-156.1-44 65.3z"/><path fill="#ff7058" d="M170.4 284.6L254 156l77.9 174.4 55.7-11v11.1l-62.1 12.3-73.3-164-73.7 113.5-50.6 36.9-6.4-8.8z"/><g fill="#fff"><path d="M117.4 387.3h269.7v-14.6H132v-255h-14.6z"/><path d="M381.7 353.3v53.8l36.4-26.9zM98.2 125.9h53.9l-26.9-36.4z"/></g></svg>