<svg xmlns="http://www.w3.org/2000/svg" viewBox="0 0 19.675 19.675" width="512" height="512"><path d="M12.599 7.199l.007-.018-2.444-2.805a.211.211 0 0 0-.322-.003L0 15.375h19.675l-7.076-8.176zM1.056 14.908c.65-.727 7.065-7.883 8.614-9.611l-4.272 9.611H1.056zm9.32-1.998H8.894v-.699h1.482v.699zm.872-4.492H9.939v-.644h1.309v.644zm1.483 2.136h-1.44v-.608h1.44v.608zm1.351 2.661v-.655h1.42v.654l-1.42.001zm-7.44-4.369v.686h.998v-.686h-.998zm-1.226 2.351h1.002v-.625H5.416v.625zm-2.671 2.797h.95v-.563h-.95v.563zm1.765-.854h1.199v-.595H4.51v.595z" fill="#686868"/></svg>