<svg xmlns="http://www.w3.org/2000/svg" viewBox="0 0 512 512"><path d="M256 0C114.616 0 0 114.615 0 256c0 138.928 110.667 252.009 248.654 255.896l258.145-307.489C482.928 87.752 379.711 0 256 0z" fill="#367596"/><path d="M512 256c0-17.672-1.791-34.926-5.2-51.591l-87.198-87.198-53.639-5.034-76.561-76.56L37.287 300.522l211.367 211.367c2.441.069 4.888.111 7.346.111 141.384 0 256-114.616 256-256z" fill="#27467a"/><path fill="#b7d9dd" d="M289.402 35.617l11.131 55.586h-66.794L256 35.617z"/><path d="M256 35.617v55.586h-44.511l11.131-55.586zM139.62 69.989l-47.222 47.223 31.435 47.176 62.964-62.963zM58.017 200.203v66.783l55.587 11.13v-89.043z" fill="#c7e7eb"/><path d="M372.38 69.989l47.222 47.223-31.435 47.176-62.964-62.963zm81.603 130.214v66.783l-55.587 11.13v-89.043z" fill="#b7d9dd"/><path d="M256 83.478l-22.261 38.957L256 161.391c39.891 0 72.359 32.456 72.359 72.348S295.891 306.087 256 306.087V384c82.977 0 150.272-67.272 150.272-150.261S338.977 83.478 256 83.478z" fill="#88acb5"/><path d="M256 306.087V384c-82.989-.011-150.25-67.272-150.25-150.261S173.011 83.489 256 83.478v77.913c-39.903.011-72.337 32.456-72.337 72.348s32.434 72.337 72.337 72.348z" fill="#a7cbcf"/><path d="M256 105.739l-22.261 27.826L256 161.391c39.891 0 72.359 32.456 72.359 72.348S295.891 306.087 256 306.087v55.652c70.578 0 128.011-57.422 128.011-128s-57.433-128-128.011-128z" fill="#b7d9dd"/><path d="M256 306.087v55.652c-70.589-.011-127.989-57.422-127.989-128s57.4-127.989 127.989-128v55.652c-39.903.011-72.337 32.456-72.337 72.348s32.434 72.337 72.337 72.348z" fill="#c7e7eb"/><path d="M256 150.261l-22.261 11.13L256 172.522c33.747 0 61.229 27.459 61.229 61.217S289.747 294.957 256 294.957v22.261c46.024 0 83.489-37.443 83.489-83.478S302.024 150.261 256 150.261z" fill="#88acb5"/><path d="M256 294.957v22.261c-46.035-.011-83.467-37.443-83.467-83.478s37.432-83.467 83.467-83.478v22.261c-33.759.011-61.206 27.459-61.206 61.217s27.447 61.205 61.206 61.217z" fill="#a7cbcf"/><path fill="#ff754f" d="M474.713 256v44.522l-252.104 22.261L256 256z"/><path fill="#ffb082" d="M317.217 387.339l-16.139 86.817H256l-22.261-109.078z"/><path fill="#ffcd9c" d="M256 365.078v109.078h-45.077l-16.14-86.817z"/><g fill="#ff9269"><path d="M256 256v66.783L37.287 300.522V256z"/><path d="M474.713 300.522l-157.496 86.817H256l-33.391-43.409L256 300.522z"/></g><path fill="#ffb082" d="M256 300.522v86.817h-61.217L37.287 300.522z"/></svg>