<svg xmlns="http://www.w3.org/2000/svg" width="3000" height="1500" viewBox="0 0 3000 1500"><defs><style>.cls-1,.cls-2,.cls-3{fill:#7bc200;fill-rule:evenodd}.cls-2,.cls-3{fill:#686868}.cls-3{stroke:#fff;stroke-width:0}</style></defs><path id="_3_copy_2" data-name="3 copy 2" class="cls-1" d="M866 146s-15.356 98.554-34.184 218.286c-28.757 182.881-65.1 413.99-65.1 413.99H320.955c-.235 0-.469.009-.7.009-43.453 0-83.442-19.074-99.262-37.027-4.543-6.732 1.614-29.269 5.656-29.269 1.011 0 1.011 0 2.947 1.122 18.767 19.075 47.224 30.295 79.561 30.295 66.7 0 120.308-60.686 128.04-162.791 5.691-75.176-15.34-152.5-119.257-154.743-5.053 0-9.586-3.869-8.73-13.178 0-17.1 17.329-27.575 19.367-27.575 109.24-3.763 119.2-47.827 125.31-113.916 3.374-36.5-16.213-97.741-68.636-97.741-21.478 0-41.453 7.144-59.312 19.132-12.92 10.421-42.523 38.287-49.373 79.468-22.444 134.944-65.176 391.578-86.224 516.121-7.142 42.26-27.458 68-27.458 68H99.015s21.962-35.477 31.433-91.516c25.283-149.6 81.545-468.32 81.545-468.32s9.454-45.354 25.371-73.222a1.714 1.714 0 0 1 .18-1.255C264.6 178.8 316 149.194 397 146h469zM442.351 603.4c-12.275 80.374 69.343 112.242 181.306 112.242 47.2 0 111.737-28.791 146.619-88.627 6.184-4.551-5.782-14.408-10.173-14.408-1.1 0-1.1 0-3.408.759-27.116 44.693-80.863 68.177-115.989 68.177-72.447 0-116.549-30.37-109.2-81.879 7.254-50.876 12.417-105.746 167.223-92.952 5.463.525 7.915-9.467 9.073-17.05 1.445-2.275-.635-18.934-2.83-18.934-124.88-1-146.156-13.861-137.934-88.369 4.6-41.673 48.648-75.5 102.4-79.256 14.887 2.416 29.864 9.408 37.694 26.236 18.96 40.748-5.987 66.587 47.9 71.556 48.911 4.511 55.068-55.662 25.939-86.879C756.789 287.056 711.527 280 656.511 280c-92.2 0-153.4 59.737-159.082 92.138-14.682 68.419 13.773 104.192 59.135 122.654C482.1 511.129 450.039 553.064 442.351 603.4z"/><path id="BETA" class="cls-2" d="M909.486 284.842q9.609-54.486 10.359-69.114.995-8.256-.938-11.559a9.744 9.744 0 0 0-5.2-4.245q-12.688-5.9-11.478-12.738-.447-2.826 10.654-10.134 6.88-4.242 20.6-11.074 13.811-6.125 37.716-17.91 3.677-2.821 17.781-2.823 70.953-1.415 63.882 46.414-3.765 24.033-16.67 39.111-13.86 15.318-54.443 36.519 19.41 6.837 40.393 29.451a79.219 79.219 0 0 1 15.13 23.325 48.332 48.332 0 0 1 2.67 26.388q-4.275 21.68-24.29 38.169a206.975 206.975 0 0 1-45.764 28.037q-55.386 23.094-70.66 23.09-21.21 0-28.093-2.356-7.122-2.353-5.783-7.3.745-4.236 6.884-9.181a26.679 26.679 0 0 0 7.278-10.124q14.358-38.61 29.974-121.949zM942.8 258.66a48.74 48.74 0 0 0 4.668 4.48q2.906 2.834 5.636 2.831 5.23 0 15.841-7.311a118 118 0 0 0 19.92-16.275q24.289-21.7 28.913-41.515 2.505-14.153-7.45-24.768-9.63-11.088-31.38-11.56a28.691 28.691 0 0 0-14 3.3q-6.93 4.484-8.8 15.1zm-23.17 104.5q-4.66 26.423-3.726 32.79.167 6.841 5.283 6.368 20.128 0 48.476-11.559A74.7 74.7 0 0 0 993 375.186a39.808 39.808 0 0 0 12.289-21.7q1.62-9.2-2.77-19.346a69.144 69.144 0 0 0-12.1-18.4q-17.279-18.868-36.883-27.128a58.522 58.522 0 0 0-16.651 8.729q-3.258 3.07-7.149 17.453-4.119 14.391-10.109 48.355zm356.4-81.708q8.445 0 7.91 5.647-1.155 4-10.32 10.584-9.51 7.294-15 8.7-42.555 2.827-71.57 2.823-21.4 115.964 71.54 116.435 10.275 0 13.83 1.881 2.865 1.882 1.74 8.231-.75 4.23-7.97 7.757-7.965 3.76-25.82 4.234-39.12-.476-59.86-13.43-20.955-12.956-28.18-32.746a123.941 123.941 0 0 1-6.45-43.584 257.984 257.984 0 0 1 4.75-42.405q17.27-95.411 55.23-133.579 35.955-37.22 76.67-36.751 19.14 0 26.02 2.33 6.45 3.5 4.93 12.126-1.86 10.5-10.76 10.5h-27.65a61.292 61.292 0 0 0-22.22 4.252q-11.7 5.433-22.45 18.421-22.605 24.568-39.79 96.117 8.805-7.068 22.41-7.539h63.01zm119.5-87.455q-8.535.476-17.98.943-5.7 0-7.25-6.774a22.2 22.2 0 0 1-.72-11.445q.735-4.209 7.08-9.112 5.61-4.671 9.34-5.139 9.81 0 29.08 1.885 18.825 1.889 57.12 1.885 51.555-1.414 103.5-3.77 6.825 0 5.63 6.833a17.41 17.41 0 0 1-2.2 4.712 72.014 72.014 0 0 1-6.68 6.832q-7.86 7.07-15.68 8.718-35.31 2.358-68.24 2.827-17.79 47.832-40.64 177.413-3.3 16.024 3.41 28.508a33.4 33.4 0 0 0 10.84 9.66q7.185 4.479 19.04 4.477 8.295-.47 15.53-1.414 3.645 0 3.75 3.273a49.745 49.745 0 0 1-.74 6.777 18.443 18.443 0 0 1-6.26 10.989 62.165 62.165 0 0 1-32.21 10.981q-13.35-.474-23.01-6.361a46.552 46.552 0 0 1-16.75-13.43q-13.7-17.907-10.36-36.758a84.685 84.685 0 0 1 3.64-12.962q2.355-8.244 5.83-20.262 7.59-23.8 16.52-74.46 7.485-42.41 11.6-84.826h-53.19zm312.94 139.951q-21.465 0-28.88 1.885-7.95 2.358-13.1 13.433-8.685 15.556-23.47 37.234-14.55 21.68-19.54 31.814-5.325 14.611-11.4 14.14-27.225 2.827-40.33 3.3-1.83 0-2.7-2.828a9.731 9.731 0 0 1-.5-4.947q1.26-7.069 3.08-9.66a7.55 7.55 0 0 1 4.53-2.356 49.033 49.033 0 0 0 15.9-7.3q8.22-5.179 14.77-17.671 3.855-6.361 22.63-32.514 18.585-26.383 42.47-60.786 24-35.1 42.63-66.913 18.54-31.332 21.99-48.3a70.124 70.124 0 0 0-.87-10.6q-2-6.831-1.49-9.66t4.23-5.89a37.354 37.354 0 0 1 8-5.183q10.32-5.418 15.88-5.89 3.435 0 7.96 5.422 4.71 5.661 6.74 14.851 16.7 67.192 49.51 162.19 23.04 58.467 33.53 75.438 10.14 16.269 9.85 17.918-.825 4.716-4.36 6.6a14.827 14.827 0 0 1-7.87 1.885 131.583 131.583 0 0 1-35.54-5.665q-3.87-1.415-5.65-6.848a37.353 37.353 0 0 1-2.92-10.62q-1.08-12.039-8.56-35.647-3.27-11.331-6.41-19.357c-2.53-5.507-4.51-8.574-5.91-9.207q-4.26-3.065-14.66-4.955-10.485-1.413-23.79-2.363-28.845-.939-45.75-.943zm77.45-22.1l-23.77-75.055q-4.455-22.657-8.03-23.131-3.045.476-6.08 7.319a114.245 114.245 0 0 1-6.94 13.452l-33.47 51.215q-13.8 19.83-13.82 22.659-.72 4.014 7.37 3.541h84.74z"/><path id="EPSILON" class="cls-2" d="M954.038 615.448q8.448 0 7.907 5.647-1.16 4-10.315 10.584-9.508 7.295-15 8.7-42.553 2.828-71.573 2.823-21.393 115.963 71.54 116.435 10.277 0 13.831 1.881 2.865 1.882 1.748 8.231-.75 4.23-7.977 7.757-7.963 3.76-25.818 4.234-39.123-.476-59.855-13.43-20.967-12.955-28.188-32.746a123.869 123.869 0 0 1-6.443-43.584 257.885 257.885 0 0 1 4.742-42.4q17.274-95.412 55.227-133.58 35.959-37.219 76.671-36.751 19.14 0 26.024 2.33 6.444 3.5 4.926 12.126-1.856 10.5-10.761 10.5h-27.647a61.333 61.333 0 0 0-22.224 4.252q-11.7 5.433-22.442 18.421-22.608 24.568-39.792 96.117 8.8-7.068 22.409-7.539h63.01zm122.542 48.962q17.04-96.6 18.74-133.354 1.08-6.123-3.38-9.189-6.48-3.3-5.56-8.481 1.2-6.781 10.75-13.095a169.952 169.952 0 0 1 21.09-10.993q25.86-9.585 41-10.053 27.36 0 55.35 12a32.969 32.969 0 0 1 11.05 8.232 100.783 100.783 0 0 1 8.11 14.585q7.365 16.236 5.33 30.346-5.925 33.64-16.12 46.105-13.185 16.467-33.52 33.4-9.09 7.532-17.12 12.936-8.085 5.649-12.64 5.648-8 0-18.02-6.6-10.62-5.888-10.71-9.189.495-2.827 3.76-4.477a36.41 36.41 0 0 1 8.97-2.827q23.8-5.179 39.06-20.262 15.885-14.844 19.3-34.163a117.609 117.609 0 0 0 1.56-17.907 82.3 82.3 0 0 0-2.38-20.262 43.635 43.635 0 0 0-8.31-16.492q-6.03-6.124-17.24-6.126-19.7 0-39.12 11.545-11.97 41.94-20.78 89.3l-22.44 127.228q-8.715 52.073-35.15 52.069-7.9 0-6.66-7.068 2.055-1.413 12.41-41zm213.96 85.8q2.16-9.652 8.32-9.657a43.534 43.534 0 0 1 15.42 4.477q8.325 4.716 21.24 4.712a31.8 31.8 0 0 0 22.75-9.189q9.285-8.713 11.16-19.319 2.625-14.844-2.83-36.048-5.415-21.436-13.27-45t-13.31-44.766q-5.925-21.2-3.43-35.341 1.53-8.714 10.87-23.561a273.1 273.1 0 0 1 22.59-30.864 149.846 149.846 0 0 1 29.25-26.624q15.54-10.6 30.92-11.073 8.565 0 22.2 2.823a28.635 28.635 0 0 1 10.19 4q3.9 2.827 3.15 7.064-1.62 9.179-5.67 12.241-4.32 3.3-17.76 3.766-31.3.944-48.19 14.357-16.305 14.126-19.88 34.37-2.19 12.478 3.33 30.838 4.26 18.831 10.46 41.43a356.157 356.157 0 0 1 10.59 44.725 136.546 136.546 0 0 1-.2 45.432q-.66 3.767-4.59 15.535-3.885 11.536-12.99 24.953a90.463 90.463 0 0 1-21.23 23.071 50.9 50.9 0 0 1-30.4 10.591q-9.435-.469-22.68-5.607a34.025 34.025 0 0 1-9.96-5.374q-4.92-2.337-5.9-4.672a44.78 44.78 0 0 1-.15-17.291zm240.21-129.474q7.755-46.607 10.4-66.85 2.865-13.65-.28-19.3-6.67-10.586-4.99-17.416.66-3.766 6.3-8.71a65.838 65.838 0 0 1 11.55-10.12q14.445-11.061 22.02-11.534a19.751 19.751 0 0 1 11.37 3.766c3.17 2.669 4.7 5.1 4.62 7.3a41.7 41.7 0 0 1-3.87 11.533 100.863 100.863 0 0 0-5.34 14.595q-10.365 37.9-40.75 207.611-5.025 28.482-10.18 38.6-5.745 9.647-13.17 9.649-4.95 0-7.21-3.766-2.43-4-1.62-18.831 1.29-26.593 21.15-136.523zm276.44 116.99a55.035 55.035 0 0 0 14.35-4.948q7.2-3.3 11.84-3.769 7.53 0 6.88 6.321-.66 3.749-7.29 18.027a54.677 54.677 0 0 1-6.65 10.536c-2.52 3.9-4.68 5.854-6.51 5.854q-6.165 0-17.46-4.536 3.09-2.037-50.56-2.039-54.615 0-53.87 3.534a34.5 34.5 0 0 1-14.87 3.041c-1.98 0-3.65-1.252-5.03-3.763a45.981 45.981 0 0 1-4.17-7.293q-4.9-9.64-4.24-13.407.8-4.467 6.21-9.174 5.235-4.936 7.32-14.114 6.93-34.1 20.78-112.676 6.195-35.1 8.22-57.017 1.455-21.2.42-32.278-3.225-20.73-3.18-23.561.585-3.3 5.91-7.775a131.566 131.566 0 0 1 11.84-9.189q15.255-10.6 21.48-11.073a22.031 22.031 0 0 1 10.17 2.827 8.721 8.721 0 0 1 4.14 8.718 38.7 38.7 0 0 1-3.58 10.131 50.712 50.712 0 0 0-4.43 13.665q-9.06 43.822-17.6 84.347-4.245 24.033-8.41 53.012-6 31.338-13.29 59.373-7.86 28.511-9.65 38.64-.66 3.771 4.99 3.769a20.032 20.032 0 0 0 5.82-.942 14.124 14.124 0 0 1 5.14-.942zm119.83-99.551q8.28-49.666 43.95-92.981 35.85-44.486 99.85-45.9 39.165 0 60 30.361 21.21 30.834 9.84 97.906-12.12 63.548-52.25 97.438-39.03 34.126-84.35 34.126-36.66 0-61.28-30.824-25.4-30.354-15.76-90.123zm34.78-7.786a63.3 63.3 0 0 0-.87 10.145q-.21 6.374.16 14.626a125.335 125.335 0 0 0 5.87 32.8 68.528 68.528 0 0 0 19.48 28.074q12.18 12.507 35.26 12.5 10.26 0 23.17-4.483 12.765-3.773 25.37-14.391 13.53-10.614 23.93-29.491 9.78-17.931 14.9-46.953 9.825-58.274-6.82-83.047-16.62-23.591-45.03-23.123-36.63.474-62 30.434-25.77 29.5-33.42 72.906zm320.69-8.582q7.935-42.409-13.05-69.5-17.85-25.446-22.84-34.634-5.535-8.714-4.48-12.016.87-4.948 8.4-10.131a26.3 26.3 0 0 1 15.48-4.948c1.26-.313 4.25 1.336 8.94 4.948q6.21 6.129 27.39 32.278Q2409.175 660.8 2523.87 723.4a651.053 651.053 0 0 0 15.33-64.954q10.245-60.716 16.83-112.264 1.785-10.126 1.08-16.492a32.038 32.038 0 0 0-3.4-9.189q-6.015-6.125-5.26-12.958.75-4.242 5.48-7.775a32.919 32.919 0 0 1 10.08-4.241q12.24-3.534 21.12-3.534a31.491 31.491 0 0 1 10.42 1.649q4.455 1.889 3.37 8.01-1.17 4.01-9.68 33.928-9.285 30.382-28.17 134.867-5.685 32.243-6.05 50.129a223.718 223.718 0 0 1-2.88 30.828q-2.565 12-15.64 18.826-12.39 6.825-19.7 6.825-2.88-.474-3.92-4.94-1.17-3.766-2.86-9.645a97.907 97.907 0 0 0-4.42-12.47 30.374 30.374 0 0 0-9.94-9.645q-96.69-63.99-130.26-91.048-34.5-27.057-52.36-48.7-5.925 23.292-16.62 68.458a673.482 673.482 0 0 1-23.83 82.341q-9.51 21.647-22.09 22.114-4.92-.474-11.3-4.233-6.84-3.76-5.8-9.645.945-5.406 7.06-15.521 5.415-10.116 12.83-26.344a317.613 317.613 0 0 0 15.92-39.987q7.545-23.518 13.28-55.979z"/><path class="cls-3" d="M334.108 886.219c16.754-.773 40.022-.02 44.038 12.991l-2 3c-18.6 5.914-25.9-11.108-46.039-6-18.68 4.741-52.589 70.414-57.048 88.942h9.007c8.918-4.44 60.22-24.326 71.061-16.989h-2c-7.859 4.5-16.922 1.886-27.023 6-19.553 7.956-42.549 14.244-60.051 23.984l5 1-1 2c-7.738 4.29-8.172 68.01-22.019 74.95-11.239 4.04-30.768-6.35-37.031-13.99q3-.495 6.005-1c-.334-1.66-.668-3.33-1-4.99-3.81-.66-4.842-1.05-7.006-3v-1c1.668-.67 3.336-1.33 5-2-4.861-1.84-5.762-2.29-6-8.99 10.021-1.71 22.236 14.2 21.018 23.98 8.343.28 11.909 2.45 16.013 1 2.321-16.49 5.75-42.1 14.012-55.96-.333-.67-.667-1.34-1-2-10.091 1.59-21.79 8.84-30.025 5.99v-.99c9.714-12.2 21.463-15.527 35.03-23.989 1-12.106 10.766-28.123 18.015-37.975l-6-1 9.007-8-6-3c16.117-8.02 11.687-22.52 19.016-30.98 9.997-11.553 26.076-12.972 39.02-21.984zm653.554 11.992l6 1 4 5c-9.117 14.726-18.909 32.668-32.027 45.97l3 3c-10.545 9.906-8.846 32.478-22.018 35.976 7.731 11.3-9.046 37.989-16.014 46.969h-3c-.334-.67-.668-1.33-1-2 4.064-7.27 6.931-20.12 13.011-27.98q-2-3.99-4-8c5.129-1.687 4.813-3.829 8.006-7l-5-8.994 1-1h3v3c1.925-1.392.6-.1 2-2l1-9.994c-32.021 9.891-52.074 43.638-95.08 45.968v-2c-1.533-8.09 15.534-17.538 21.017-22.981 17.643-17.514 36.5-29.968 61.052-40.974l14.012-1c5.6-2.638 9.5-11.728 14.012-15.989l-1-9.994c6.605-5.325 4.961-9.673 10.008-16.989zm891.758 0l6 1q2.01 2.5 4 5c-7.85 14.811-19.25 33.218-32.02 45.97l3 1c-2.68 8.552-17.12 36.777-22.02 37.975 5.25 7.376-8.35 40.769-15.01 44.969-1.34.67-2.67 1.33-4 2-.34-.67-.67-1.33-1.01-2 4.39-6.99 6.9-20.12 13.02-27.98q-2.01-3.99-4.01-8c5.45-1.466 5.05-3.518 8.01-7-2.12-3.82-3.28-4.237-4-9.994 4 1.421 1.79.412 3 3 1.92-1.392.6-.1 2-2 .33-3.331.67-6.663 1-9.994-33.21 10.365-52.17 43.448-95.08 45.968-.63-13.53 51.56-52.563 66.06-58.959 9.9-4.371 26.83-5.265 34.03-10.993 12.46-9.924 11.03-25.254 20.01-39.974q8.5-4.991 17.02-9.988zM1198.84 909.2l9.01 2v1c-.67.666-1.34 1.332-2 2-8.06 15.356-24.08 26.582-30.03 43.972l56.05 1c.33 1 .67 2 1 3-20.62 1.892-53.54-1.56-68.06 8.994-3.41 13.991-12.26 25.941-20.02 35.977 2.67 3.61 2.71.42 1.01 5-.67.33-1.34.66-2.01 1 1.93 4.49.3 9.5 2.01 12.99 20.05-9.13 35.6-19.98 52.04-31.982l6 3q-3 3.5-6 6.994c-24.38 10.45-39.82 27.62-73.06 31.98-3.07-31.49 22.04-48.954 33.03-69.954-10.1.548-20.95 3.556-27.03-1q1.5-2 3.01-4l32.02-3c-2.99-21.803 16.36-35.985 33.03-48.971zm330.28 0l9.01 2v1c-10.22 15.466-23.44 28.631-32.03 45.97 14.83 1.558 48.45-5.3 57.05 3v1c-20.59 1.947-53.53-1.562-68.06 8.994-3.42 14.042-12.24 25.927-20.02 35.977 2.67 3.61 2.71.42 1 5-1.3 1.52-1.23 11.48 0 13.99 12.61-5.76 49.05-31.733 57.05-30.983.34.666.67 1.333 1 2-15.59 20.234-47.58 34.024-78.06 38.974-.34-1-.67-2-1-3-5.38-20.07 24.27-50.666 33.03-66.954-11.13.424-18.33 2.241-27.03 0 .34-1 .67-2 1-3 .67-.666 1.34-1.332 2-2l32.03-3c-2.74-22.68 16.66-34.801 33.03-48.968zm584.49 12l10.01 2c.79 10.44 6.49 8.023 12.01 12.992v1c-14.78 1.759-28.18 8.309-42.03 0l3-4zm166.15 0l10 2c.4 9.078 6.13 10.149 13.01 11.993-.33.666-.66 1.332-1 2-15.13 1.792-27.65 7.692-42.03 0l3-4q8.505-6 17.02-11.993zm-61.06 20.986c6.06.922 10.39 1.465 13.01 6 .34 1.665.67 3.331 1.01 5-5.4 6.826-10.81 12.684-21.02 11.992v-1c1.85-2.657 1.99-1.778 3-6h-5c-18.86 9.739-22.65 45.778-26.03 63.958-6.96 1.72-12.04 3.64-16.01 7-1.67-.34-3.34-.67-5-1 .33-1.34.66-2.67 1-4-7.05 1.68-11.05 1.56-17.02-2q1.005-3 2-6h-8c-4.4 2.68-10.51-3.61-20.02-3.99.67-1 1.34-2 2-3q6.51-3.5 13.01-7c14.68-3.269 18.87 13.51 34.03 10 1.53-12.331 9.32-18.784 13.01-27.985 10.71-26.694 2.52-27.361 36.03-41.979zm-1167.99 7l8.01 1 3 2c-.56 9.442-3.93 10.258-11.01 12.992-6.55-1.244-1.57.944-8 2v-5c-23.53 4.993-41.72 29.067-54.048 45.971.334.66.668 1.33 1 2 12.247-5.99 74.627-45.034 80.067-41.975 4.57 5.133-3.82 19.576-8.01 22.985 2.41 4.446 4.01 10.79 7.01 12.99 18.66 8.42 52.31-20.279 71.06-25.982-8.19 12.566-72.83 46.622-93.08 35.972-1.62-3.41-1.63-3.34-5-4.99.33-.67.66-1.33 1-2 1-.33 2-.67 3-1-4.38-5.87-1.36-8.557-2-14.99-1.93-1.391-.6-.1-2-2-15.31 3.406-63.187 39.859-75.066 31.979l3-3c15.962-33.58 51.677-48.082 81.067-68.961zm237.21 0l10 1c.34 2.331.67 4.664 1.01 7-3.73 4.119-5.17 5.628-11.01 8-6.62-1.244-1.59 1.225-9.01 2 .33-1.666.67-3.332 1-5-23.4 4.936-42.32 28.723-54.05 45.971.34.66.67 1.33 1 2 12.24-5.99 74.44-45.147 80.07-41.975h2c-2.3 13.225-14.75 26.381-5 34.975 14.81 9.66 56.02-19.773 73.06-24.982l-6 7c-18.55 7.8-64.01 41.926-88.08 27.986-1.33-1.67-2.67-3.34-4-5v-1c1.33-.67 2.67-1.33 4-2-1.33-1-2.67-2-4-3 1.69-3.978 4.21-7.979 1-9.991l-3-3c-11.97 5.048-62.98 38.689-73.07 31.979q1.515-1.5 3.01-3c15.83-33.992 51.48-48.015 81.07-68.972zm659.55 2q4.515 1.5 9.01 3v1c-7.01 8.847-19.76 16.777-25.02 25.983 14.93-5.9 32.19-14.21 50.04-14.99-.66 1-1.33 2-2 3-25.19 8.957-57.34 18.664-79.07 31.976l2.01 8c24.29 8.77 51.13-18.179 72.06-21.987v3a169.4 169.4 0 0 0-1 2c-23.65 7.75-60.74 37.551-90.08 23.981-2.49-26.473 22.17-63.606 53.04-63.955-6.47 12.4-21.49 24.585-31.02 34.978h4c17.36-8.372 24.36-24.042 38.03-35.996zm105.09 0l17.02 1v1c-1.34 1.665-2.67 3.331-4.01 5-36.54 9.112-47.51 7.331-66.05 37.975-4.16 6.883-8.84 7.213-9.01 19.983.67.34 1.33.67 2 1 21.73 3.25 32.89-17.439 49.04-22.982.34.666.67 1.333 1 2-.66.666-1.33 1.332-2 2-4.5 9.335-47.69 34.825-63.05 28.985-1.33-.67-2.67-1.34-4-2 1.61-6.4 1.46-6.63-2.01-11 23.46-50.483 33.55-40.447 81.07-62.971zm46.04 8c5.73.2 14.13-.949 18.02 2-8.7 20.423-12.35 41.72-31.03 55.96-3.76-1.67-3.14-1.61-5-4.99 10.96-13.8 13.48-27.44 20.01-39.978q-4.995-3.5-10-7-14.025 4-28.03 8c4.48-11.155 25.56-8.815 36.03-14.007zm166.14 0c5.73.2 14.13-.949 18.02 2-2.57 7.582-25.36 70.2-36.03 50.97 10.98-13.8 13.46-27.4 20.01-39.978q-4.995-3.5-10-7l-28.03 8c4.48-11.155 25.56-8.815 36.03-14.007zm-1844.559 2c12.274-.075 14.728 4.607 22.019 8.994l-1 2-18.015-3c-24.413 3.966-49.937 41.016-83.07 47.966q10.007-21.975 20.016-43.968l13.011-8.994c4.812-.534 6.7-.485 11.01 1l-17.015 30.98c19.794-8.519 36.812-22.132 53.044-34.994zm166.141 1c4.739-.058 6.667.13 9.008 2-6.229 10.517-11.214 24.708-19.017 35.972v3h1q40.03-20.481 80.068-40.971l5 3q-10.006 18.985-20.017 37.973h1c16.653-8.8 53.886-33.122 74.063-30.978v3c3.575 13.745-4.865 19.887-2 31.98h1q20.515-5.49 41.035-10.993v1l-6 6.994c-17.466 2.04-41.739 21.47-61.052 13.99.053-6.79-1.034-8.17-3-11.99l5-4c-4.373-1.63-2.944-.04-4-4.994 3.591-2.218 4.307-2.218 2-5l-2-2c-26.083 2.773-45.2 23.9-70.059 29.979l-2-3c5.037-12.8 13.542-21.469 15.013-33.975-28.975 5.062-43.074 32.065-75.064 34.975-.333-.33-.667-.66-1-1 .739-12.91 8.157-19.138 13.011-25.98h-4c1.614-6.346 6.421-13.564-2-11.992-5.281.178-9.315 6.756-15.013 3l2-3zm-96.081 5c10.7.1 14.258 4.4 22.018 6 9.232 1.894 25.444-3.2 37.032 0l-2 3c-42.095 6.145-62.033 45.13-102.087 42.97q-2.5-2.49-5-5c1.383-4.83 2.351-21.081 3-25.978l-20.017 6v-4c14.15-8.411 31.085-14.891 49.041-18.988v1c-4.763 5.9-15.635 13.028-11.009 24.984 2.011 4.694 3.5 6.464 10.008 6.994q13.011-6 26.023-11.991c1-5.979 1.055-8.829 0-15.989-5.8-1.171-14.32-2.473-18.016-6zm1116.949 0c1.22-.018 58.05 6.995 58.05 6.995v1l-35.03 8-2.01 7c-12.89 12.479-46.04 30.039-67.05 28.979q-2.505-2.49-5.01-5c2.6-8.02.32-16.581 4.01-25.978h-1q-10.02 3-20.02 6v-4c15.02-7.717 30.64-14.76 49.04-18.988-.33 1.332-.67 2.665-1 4q-4.5 3-9.01 6l-1 16.989c2.74 3.525 4.25 5.175 10.01 6 11.75-3.8 22.12-7.323 28.02-16.987l-1-9c-4.82-3.288-14.65-4.006-19.01-7.994q6-1.538 12.01-3.036zm757.64 0h3l3 1c.67-.333 1.34-.666 2-1h4.01q4.995 3 10.01 6c7.3 1.623 30.47-6.56 36.03 2q-17.025 4-34.03 8-4.5 6-9.01 11.992c-11.95 9.333-53.15 32.973-65.06 17.993 1.48-6.39.68-16.262 3.01-24.988q-10.005 3-20.02 6v-4c13.73-8.2 31.04-16.1 49.04-18.988-.33 1-.67 2-1 3q-4.5 3-9.01 6l-1 17.988c2.19 3.685 3.65 5.165 9.01 6 10.37-2.73 34-9.147 27.02-24.982-3.72-6.059-13.76-4.652-19.01-8.994q6-1.543 12.01-3.041zm92.08 0h4v7.994c-5.05 5.765-9.53 17.86-8.01 27.98h1c18.5-8.155 45.89-22.076 67.06-23.982.82 6.781 4.63 17.224 9.01 20.982 8.43-3.735 32.15-12.667 39.03-8.99-.33.666-.67 1.332-1 2-19.33 8.041-41.63 14.361-63.05 21.981l-4.01-2.99c-.33-4.33-.66-8.67-1-13-1.67-1-3.33-2-5-3-16.56 6.033-56.94 25.543-71.06 23.983v-1c6.19-11.79 9.35-23.016 14.01-34.975zm-1539.308 2c-10.984 9.415-34.229 18.313-38.032 33.976 15.5-7.186 39.595-18.871 48.041-32.976zm891.758 0c-10.11 9.235-26.13 23.985-38.04 29.981.34 1.335.67 2.665 1.01 4 14.99-7.239 38.75-19.158 47.04-32.976zM258.044 996.147c-6.635 3.827-11.6 5.063-16.014 10.993h4a20.818 20.818 0 0 1 11.009-2l2-8.993h-1zm1822.546 21.983h7c.34 1.33.67 2.67 1 4h-2c-2.82 3.08-6.43 3.33-10.01 3 .34-1 .67-2 1-3l3.01-4zm166.14 0h7c.34 1 .67 2 1 3-3.2 3.52-7.61 4.38-12.01 4 .34-1 .67-2 1-3 1.01-1.33 2.01-2.67 3.01-4z"/><path id="Rectangle_13_copy_2" data-name="Rectangle 13 copy 2" class="cls-1" d="M212.482 836.278h2380.4l-7.17 19.707H205.311z"/></svg>