<svg xmlns="http://www.w3.org/2000/svg" viewBox="0 0 356.671 356.671"><title>iq-brain-intelligent-mind-mental-smart</title><path d="M200.628 128.178v-11.146c19.375.023 35.797 14.262 38.565 33.438h61.748c9.233-.073 16.659-7.618 16.585-16.851a16.718 16.718 0 0 0-13.13-16.196h-.502a16.72 16.72 0 0 0-14.1 16.329h-11.146c-.003-13.243 9.316-24.659 22.292-27.307v-.557c0-9.234-7.485-16.719-16.719-16.719h-.836c-13.781.49-25.131 10.987-26.694 24.688a22.292 22.292 0 0 1 5.239 14.323h-11.146c0-6.156-4.99-11.146-11.146-11.146v-11.146a22.28 22.28 0 0 1 6.91 1.226 39.01 39.01 0 0 1 32.1-28.645v-.446c0-9.234-7.485-16.719-16.719-16.719-2.157.059-4.28.551-6.242 1.449-3.388 18.517-19.517 31.973-38.342 31.989V83.594c14.083-.074 25.897-10.644 27.53-24.633-1.435-9.121-9.993-15.352-19.114-13.917a16.722 16.722 0 0 0-8.026 3.607l-5.016 4.236-3.344-5.573c-4.789-7.895-15.071-10.413-22.966-5.624a16.715 16.715 0 0 0-5.624 5.624l-1.672 2.786a22.293 22.293 0 0 0 21.512 16.775v11.146c-18.061.009-32.866-14.326-33.438-32.379a15.672 15.672 0 0 0-5.573-1.059c-8.58-.049-15.804 6.405-16.719 14.935v1.783c0 12.311 9.98 22.292 22.292 22.292V94.74c-18.02.011-32.807-14.259-33.438-32.267a15.938 15.938 0 0 0-5.573-1.17c-9.234 0-16.719 7.485-16.719 16.719v.557a27.863 27.863 0 0 1 20.397 17.499 22.303 22.303 0 0 1 7.468-1.338v11.146c-6.156 0-11.146 4.99-11.146 11.146H117.03a22.287 22.287 0 0 1 5.239-14.211 16.72 16.72 0 0 0-16.384-13.654h-.334c-9.103.182-16.386 7.614-16.384 16.719v.836a22.292 22.292 0 0 1 16.719 21.456H94.741a11.146 11.146 0 0 0-8.694-10.867h-.334c-9.083 1.66-15.1 10.37-13.44 19.453a16.718 16.718 0 0 0 16.895 13.706h22.849c2.649-12.976 14.064-22.295 27.308-22.292v11.146a16.72 16.72 0 0 0-15.716 11.146h104.326c-2.649-12.976-14.064-22.295-27.307-22.292zm-11.146-16.719c-12.311 0-22.292 9.98-22.292 22.292h-11.146c.009-15.111 10.152-28.338 24.744-32.267a22.291 22.291 0 0 1 19.84-12.316v11.146c-6.156-.001-11.146 4.989-11.146 11.145z" fill="#f78628"/><path d="M312.087 108.171v-2.285a29.591 29.591 0 0 0-22.292-27.307v-.557c0-15.389-12.476-27.865-27.865-27.865a27.211 27.211 0 0 0-7.579 1.059C248.95 36.97 233.022 29.8 218.777 35.202a27.49 27.49 0 0 0-3.436 1.58c-10.518-11.234-28.151-11.815-39.385-1.297-.447.418-.879.851-1.297 1.297-13.373-7.299-30.131-2.375-37.431 10.998a27.49 27.49 0 0 0-1.58 3.436 27.222 27.222 0 0 0-7.468-1.059c-15.389 0-27.865 12.476-27.865 27.865v.557c-12.976 2.649-22.295 14.064-22.292 27.307v2.285c-14.127 6.103-20.633 22.503-14.53 36.63a27.863 27.863 0 0 0 25.676 16.814h117.032v35.723l44.584 44.584v114.747h11.146V237.352l-44.584-44.584v-31.153h78.021v195.054h11.146v-195.61c15.087-3.037 24.855-17.729 21.818-32.816a27.87 27.87 0 0 0-16.245-20.072zm-11.146 42.299h-61.748c-2.768-19.176-19.19-33.415-38.565-33.438v11.146c13.243-.003 24.659 9.316 27.308 22.292H123.609a16.72 16.72 0 0 1 15.716-11.146v-11.146c-13.243-.003-24.659 9.316-27.308 22.292H89.168c-9.233-.073-16.659-7.618-16.585-16.852a16.718 16.718 0 0 1 13.13-16.196h.39a11.145 11.145 0 0 1 8.638 10.756h11.146a22.292 22.292 0 0 0-16.719-21.456v-.836c-.002-9.105 7.282-16.537 16.384-16.719h.334a16.718 16.718 0 0 1 16.384 13.654 22.298 22.298 0 0 0-5.239 14.211h11.146c0-6.156 4.99-11.146 11.146-11.146V94.74c-2.532.04-5.038.511-7.412 1.393a27.865 27.865 0 0 0-20.453-17.555v-.557c0-9.234 7.485-16.719 16.719-16.719 1.913.052 3.801.449 5.573 1.17.631 18.009 15.418 32.279 33.438 32.267V83.594c-12.311 0-22.292-9.98-22.292-22.292v-1.839c.941-8.509 8.158-14.932 16.719-14.88 1.907.011 3.795.37 5.573 1.059.572 18.052 15.376 32.388 33.438 32.379V66.876a22.292 22.292 0 0 1-21.567-16.719l1.672-2.786c4.789-7.895 15.071-10.413 22.966-5.624a16.715 16.715 0 0 1 5.624 5.624l3.344 5.573 5.016-4.236c7.129-5.868 17.666-4.845 23.533 2.284a16.722 16.722 0 0 1 3.607 8.026c-1.657 13.945-13.432 24.478-27.475 24.577V94.74c18.825-.015 34.953-13.472 38.342-31.989a16.034 16.034 0 0 1 6.242-1.449c9.234 0 16.719 7.485 16.719 16.719v.446a39.012 39.012 0 0 0-32.045 28.645 22.279 22.279 0 0 0-6.966-1.226v11.146c6.156 0 11.146 4.99 11.146 11.146h11.146a22.287 22.287 0 0 0-5.239-14.211c1.512-13.745 12.875-24.302 26.694-24.8h.836c9.234 0 16.719 7.485 16.719 16.719v.557c-12.976 2.649-22.294 14.064-22.292 27.307h11.146a16.72 16.72 0 0 1 14.1-16.719h.502c9.234.954 15.945 9.213 14.991 18.446-.954 9.235-9.213 15.947-18.446 14.993z" fill="#414a52"/><path d="M195.055 0C105.797 0 33.439 72.358 33.439 161.616v83.594h33.438v72.449h105.886v39.011h11.146v-39.011h11.146v-11.146H78.022v-72.448H44.585v-72.448c0-83.102 67.368-150.47 150.47-150.47s150.47 67.368 150.47 150.47v195.054h11.146V161.616C356.67 72.358 284.313 0 195.055 0z" fill="#414a52"/><path d="M180.788 101.484c-14.592 3.929-24.735 17.156-24.744 32.267h11.146c0-12.311 9.98-22.292 22.292-22.292 0-6.156 4.99-11.146 11.146-11.146V89.167a22.292 22.292 0 0 0-19.84 12.317zM55.731 33.438h11.146V22.292h11.145V11.146H66.877V0H55.731v11.146H44.585v11.146h11.146zm-22.292 5.573V27.865H22.293V16.719H11.147v11.146H.001v11.146h11.146v11.146h11.146V39.011zm239.637 133.751h11.146v11.146h-11.146zm-22.292 0h11.146v11.146h-11.146zm-22.292 0h11.146v11.146h-11.146zm44.584 22.292h11.146V206.2h-11.146zm-22.292 0h11.146V206.2h-11.146zm22.292 22.291h11.146v11.146h-11.146z" fill="#414a52"/></svg>