<svg xmlns="http://www.w3.org/2000/svg" viewBox="0 0 446.041 446.041"><circle cx="208.399" cy="223.02" r="178.462" fill="#3e4959"/><g fill="#242d3c"><path d="M316.34 81.233L273.276 124.3l-1.384-1.383 43.066-43.066z"/><path d="M314.959 79.852h88.411v1.918h-88.411z"/><path d="M410.151 80.815c0 3.766-3.042 6.809-6.774 6.809a6.798 6.798 0 0 1-6.806-6.809 6.798 6.798 0 0 1 6.806-6.811c3.732 0 6.774 3.04 6.774 6.811zM350.855 330.56l-62.057-62.107 1.385-1.337 62.058 62.048z"/><path d="M350.848 328.596h88.382v1.972h-88.382z"/><path d="M446.041 329.598c0 3.722-3.038 6.764-6.804 6.764-3.739 0-6.779-3.042-6.779-6.764 0-3.769 3.04-6.818 6.779-6.818 3.764-.001 6.804 3.049 6.804 6.818zm-330.413 45.888l61.906-61.874-1.381-1.385-61.864 61.865z"/><path d="M27.291 373.568h88.337v1.922H27.291z"/><path d="M20.448 374.526c0 3.727 3.072 6.809 6.843 6.809 3.729 0 6.767-3.082 6.767-6.809 0-3.766-3.038-6.816-6.767-6.816-3.771 0-6.843 3.049-6.843 6.816zM6.799 204.436H119.55v1.922H6.799z"/><path d="M0 205.406c0 3.771 3.079 6.809 6.809 6.809a6.794 6.794 0 0 0 6.809-6.809 6.794 6.794 0 0 0-6.809-6.804c-3.73 0-6.809 3.037-6.809 6.804z"/></g><path d="M208.406 101.607V223.02l108.226-55.106c-20.12-39.385-61.001-66.307-108.226-66.307z" fill="#ff6d3b"/><path d="M145.255 223.06c0-34.88 28.266-63.148 63.148-63.148v-34.031c-30.151 0-56.534 12.571-75.493 36.034-33.765 41.686-27.343 102.833 14.346 136.64l21.383-26.422c-14.269-11.574-23.384-29.265-23.384-49.073z" fill="#fff"/><path d="M168.64 272.13l-21.383 26.422c15.65 12.647 32.65 19.495 52.684 21.265l2.964-33.881c-12.921-1.114-24.729-6.111-34.265-13.806z" fill="#242d3c"/><path d="M294.934 178.949l-30.267 15.424a63.008 63.008 0 0 1 6.887 28.687c0 34.885-28.268 63.148-63.148 63.148a52.14 52.14 0 0 1-5.497-.268l-2.964 33.881c18.924 1.652 35.648-1.605 52.571-10.235 47.804-24.34 66.8-82.832 42.418-130.637z" fill="#21d8de"/></svg>