<svg xmlns="http://www.w3.org/2000/svg" viewBox="0 0 512.001 512.001"><path d="M336.603 160.441L263.355 27.867a8.399 8.399 0 0 0-7.354-4.339 8.398 8.398 0 0 0-7.354 4.339L175.4 160.443a8.404 8.404 0 0 0 7.355 12.466H329.25a8.404 8.404 0 0 0 7.353-12.468z" fill="#ffdb56"/><path d="M419.135 309.821l-63.963-115.769a8.402 8.402 0 0 0-7.355-4.339H164.184a8.4 8.4 0 0 0-7.355 4.339L92.865 309.821a8.403 8.403 0 0 0 7.355 12.466h311.56a8.404 8.404 0 0 0 7.355-12.466z" fill="#f77935"/><path d="M510.953 476.007l-73.247-132.574a8.399 8.399 0 0 0-7.354-4.339H81.651a8.4 8.4 0 0 0-7.355 4.339L1.048 476.007a8.404 8.404 0 0 0 7.355 12.466h495.195a8.404 8.404 0 0 0 7.355-12.466z" fill="#3fc8f2"/><path d="M510.953 476.007l-73.247-132.574a8.399 8.399 0 0 0-7.354-4.339H81.651a8.4 8.4 0 0 0-7.355 4.339L1.048 476.007a8.404 8.404 0 0 0 7.355 12.466h495.195a8.404 8.404 0 0 0 7.355-12.466z" fill="#3fc8f2"/><path d="M301.137 172.907h28.111a8.404 8.404 0 0 0 7.355-12.466L263.355 27.867a8.399 8.399 0 0 0-7.354-4.339 8.398 8.398 0 0 0-7.354 4.339l-13.631 24.672 66.121 120.368z" fill="#fba806"/><path d="M383.197 322.287h28.583a8.404 8.404 0 0 0 7.355-12.466l-63.963-115.769a8.402 8.402 0 0 0-7.355-4.339h-37.449l72.829 132.574z" fill="#d9510d"/><path d="M510.953 476.007l-73.247-132.574a8.399 8.399 0 0 0-7.354-4.339H392.43l82.059 149.38h29.109a8.404 8.404 0 0 0 7.355-12.467z" fill="#0daace"/></svg>