<svg xmlns="http://www.w3.org/2000/svg" viewBox="0 0 612.001 612.001" width="512" height="512"><g fill="#686868"><path d="M376.924 57.709l-198.438 353.1 67.533.192 134.098-233.178L612.001 590.26v-88.14a40.786 40.786 0 0 0-4.922-19.426L376.924 57.709z"/><path d="M414.796 493.566l-29.716-49.345-164.13-.001-97.789.001L357.477 21.77l-51.575-.03a20.396 20.396 0 0 0-17.64 10.137L19.788 493.19l395.008.376z"/><path d="M0 569.865c0 11.265 9.131 20.396 20.396 20.396h551.152L379.666 248.074l-33.991 58.874 76.609 132.6 53.702 88.324H0v41.993z"/></g></svg>